<svg width="125" height="21" viewBox="0 0 125 21" fill="none" xmlns="http://www.w3.org/2000/svg">
<g clip-path="url(#clip0_13162_355)">
<path d="M10.001 20.9253C15.5238 20.9253 20.001 16.4481 20.001 10.9253C20.001 5.40245 15.5238 0.925293 10.001 0.925293C4.47813 0.925293 0.000976562 5.40245 0.000976562 10.9253C0.000976562 16.4481 4.47813 20.9253 10.001 20.9253Z" fill="white"/>
<path d="M12.5149 11.3167H10.7305V17.8538H8.027V11.3167H6.74121V9.01928H8.027V7.53259C8.027 6.46945 8.532 4.80469 10.7545 4.80469L12.7571 4.81307V7.04309H11.3041C11.0658 7.04309 10.7307 7.16217 10.7307 7.66932V9.02141H12.751L12.5149 11.3167Z" fill="#305F64"/>
</g>
<g clip-path="url(#clip1_13162_355)">
<path d="M45.0019 20.9251C50.5247 20.9251 55.0018 16.448 55.0018 10.9252C55.0018 5.40241 50.5247 0.925293 45.0019 0.925293C39.4791 0.925293 35.002 5.40241 35.002 10.9252C35.002 16.448 39.4791 20.9251 45.0019 20.9251Z" fill="white"/>
<path d="M51.1262 8.11185C50.6976 8.30188 50.2367 8.4304 49.7532 8.4878C50.2468 8.19207 50.6256 7.72414 50.8044 7.16566C50.3425 7.43964 49.8308 7.6384 49.2865 7.74553C48.8505 7.28117 48.2293 6.99097 47.5414 6.99097C46.2216 6.99097 45.1511 8.06141 45.1511 9.38123C45.1511 9.56858 45.1724 9.75093 45.2134 9.92598C43.2268 9.82634 41.4655 8.8748 40.2865 7.42823C40.0808 7.78118 39.9628 8.19207 39.9628 8.63005C39.9628 9.45913 40.3851 10.1911 41.0261 10.6196C40.6344 10.6073 40.2656 10.4998 39.9435 10.3203C39.9433 10.3305 39.9433 10.3406 39.9433 10.3506C39.9433 11.5087 40.7676 12.4747 41.8609 12.6941C41.6605 12.7491 41.4489 12.7781 41.2312 12.7781C41.0769 12.7781 40.9273 12.7633 40.7815 12.7355C41.0856 13.6849 41.9682 14.376 43.0144 14.3954C42.1962 15.0366 41.1656 15.4186 40.0455 15.4186C39.853 15.4186 39.6622 15.4074 39.4756 15.3851C40.5328 16.0636 41.7896 16.4591 43.1393 16.4591C47.5359 16.4591 49.9402 12.817 49.9402 9.65806C49.9402 9.55449 49.9379 9.45128 49.9333 9.34896C50.4007 9.01205 50.8058 8.59119 51.1262 8.11185Z" fill="#305F64"/>
</g>
<g clip-path="url(#clip2_13162_355)">
<path d="M81.915 10.9253C81.915 11.9824 81.0581 12.8394 80.001 12.8394C78.9438 12.8394 78.0869 11.9824 78.0869 10.9253C78.0869 9.86816 78.9438 9.01123 80.001 9.01123C81.0581 9.01123 81.915 9.86816 81.915 10.9253Z" fill="white"/>
<path d="M84.4769 7.53873C84.3849 7.2894 84.2381 7.06372 84.0474 6.87848C83.8622 6.68774 83.6366 6.54095 83.3871 6.44894C83.1848 6.37036 82.8809 6.27682 82.321 6.25134C81.7154 6.22372 81.5338 6.21777 80.0006 6.21777C78.4673 6.21777 78.2857 6.22357 77.6802 6.25119C77.1204 6.27682 76.8163 6.37036 76.6141 6.44894C76.3646 6.54095 76.1389 6.68774 75.9538 6.87848C75.7631 7.06372 75.6163 7.28925 75.5241 7.53873C75.4456 7.74106 75.352 8.04517 75.3265 8.60501C75.2989 9.21048 75.293 9.39206 75.293 10.9254C75.293 12.4586 75.2989 12.6402 75.3265 13.2458C75.352 13.8057 75.4456 14.1096 75.5241 14.312C75.6163 14.5614 75.7629 14.787 75.9537 14.9722C76.1389 15.1629 76.3644 15.3097 76.6139 15.4017C76.8163 15.4805 77.1204 15.574 77.6802 15.5995C78.2857 15.6271 78.4671 15.6329 80.0005 15.6329C81.534 15.6329 81.7155 15.6271 82.3209 15.5995C82.8807 15.574 83.1848 15.4805 83.3871 15.4017C83.8879 15.2086 84.2838 14.8127 84.4769 14.312C84.5555 14.1096 84.649 13.8057 84.6747 13.2458C84.7023 12.6402 84.7081 12.4586 84.7081 10.9254C84.7081 9.39206 84.7023 9.21048 84.6747 8.60501C84.6492 8.04517 84.5557 7.74106 84.4769 7.53873ZM80.0006 13.8739C78.372 13.8739 77.0518 12.5538 77.0518 10.9253C77.0518 9.29669 78.372 7.97665 80.0006 7.97665C81.629 7.97665 82.9492 9.29669 82.9492 10.9253C82.9492 12.5538 81.629 13.8739 80.0006 13.8739ZM83.0658 8.54916C82.6852 8.54916 82.3767 8.24063 82.3767 7.86008C82.3767 7.47952 82.6852 7.17099 83.0658 7.17099C83.4464 7.17099 83.7549 7.47952 83.7549 7.86008C83.7547 8.24063 83.4464 8.54916 83.0658 8.54916Z" fill="white"/>
<path d="M80.001 0.925293C74.479 0.925293 70.001 5.40329 70.001 10.9253C70.001 16.4473 74.479 20.9253 80.001 20.9253C85.523 20.9253 90.001 16.4473 90.001 10.9253C90.001 5.40329 85.523 0.925293 80.001 0.925293ZM85.7085 13.2927C85.6808 13.904 85.5836 14.3213 85.4417 14.6866C85.1433 15.4579 84.5336 16.0677 83.7623 16.366C83.3971 16.5079 82.9796 16.6049 82.3685 16.6328C81.7562 16.6608 81.5606 16.6675 80.0011 16.6675C78.4415 16.6675 78.2461 16.6608 77.6336 16.6328C77.0225 16.6049 76.605 16.5079 76.2398 16.366C75.8565 16.2218 75.5096 15.9958 75.2227 15.7036C74.9306 15.4169 74.7047 15.0697 74.5605 14.6866C74.4185 14.3214 74.3214 13.904 74.2936 13.2928C74.2654 12.6804 74.2588 12.4847 74.2588 10.9253C74.2588 9.36584 74.2654 9.17023 74.2934 8.55789C74.3212 7.94662 74.4182 7.5293 74.5602 7.164C74.7043 6.78085 74.9305 6.43372 75.2227 6.147C75.5094 5.8548 75.8565 5.62881 76.2397 5.48462C76.605 5.34271 77.0223 5.24567 77.6336 5.21774C78.2459 5.18982 78.4415 5.18311 80.001 5.18311C81.5604 5.18311 81.756 5.18982 82.3684 5.2179C82.9796 5.24567 83.397 5.34271 83.7623 5.48447C84.1454 5.62866 84.4926 5.8548 84.7794 6.147C85.0715 6.43387 85.2976 6.78085 85.4417 7.164C85.5837 7.5293 85.6808 7.94662 85.7087 8.55789C85.7366 9.17023 85.7432 9.36584 85.7432 10.9253C85.7432 12.4847 85.7366 12.6804 85.7085 13.2927Z" fill="white"/>
</g>
<g clip-path="url(#clip3_13162_355)">
<path d="M115.001 20.9253C120.524 20.9253 125.001 16.4482 125.001 10.9253C125.001 5.40245 120.524 0.925293 115.001 0.925293C109.478 0.925293 105.001 5.40245 105.001 10.9253C105.001 16.4482 109.478 20.9253 115.001 20.9253Z" fill="white"/>
<path d="M122.072 3.85327C125.977 7.75886 125.977 14.0908 122.072 17.9963C118.167 21.9016 111.834 21.9018 107.929 17.9963L122.072 3.85327Z" fill="white"/>
<path d="M124.801 12.9279L119.851 7.97876L114.014 8.64337L110.483 14.1097L117.081 20.7072C120.96 19.8866 124.01 16.8182 124.801 12.9279Z" fill="white"/>
<path d="M120.235 8.99531C120.235 8.15701 119.556 7.47754 118.718 7.47754H111.601C110.763 7.47754 110.084 8.15717 110.084 8.99531V13.0653C110.084 13.9036 110.763 14.583 111.601 14.583H118.718C119.556 14.583 120.235 13.9034 120.235 13.0653V8.99531H120.235ZM114.144 12.7473V8.92458L117.043 10.836L114.144 12.7473Z" fill="#305F64"/>
</g>
<defs>
<clipPath id="clip0_13162_355">
<rect width="20" height="20" fill="white" transform="translate(0.000976562 0.925293)"/>
</clipPath>
<clipPath id="clip1_13162_355">
<rect width="20" height="20" fill="white" transform="translate(35.001 0.925293)"/>
</clipPath>
<clipPath id="clip2_13162_355">
<rect width="20" height="20" fill="white" transform="translate(70.001 0.925293)"/>
</clipPath>
<clipPath id="clip3_13162_355">
<rect width="20" height="20" fill="white" transform="translate(105.001 0.925293)"/>
</clipPath>
</defs>
</svg>
