<svg width="144" height="23" viewBox="0 0 144 23" fill="none" xmlns="http://www.w3.org/2000/svg">
<path d="M-0.0079999 1.2H7.624C9.448 1.2 11.056 1.552 12.448 2.256C13.856 2.944 14.944 3.92 15.712 5.184C16.496 6.448 16.888 7.92 16.888 9.6C16.888 11.28 16.496 12.752 15.712 14.016C14.944 15.28 13.856 16.264 12.448 16.968C11.056 17.656 9.448 18 7.624 18H-0.0079999V1.2ZM7.432 14.808C9.112 14.808 10.448 14.344 11.44 13.416C12.448 12.472 12.952 11.2 12.952 9.6C12.952 8 12.448 6.736 11.44 5.808C10.448 4.864 9.112 4.392 7.432 4.392H3.88V14.808H7.432ZM32.5641 5.088V18H29.0121V16.464C28.5161 17.024 27.9241 17.456 27.2361 17.76C26.5481 18.048 25.8041 18.192 25.0041 18.192C23.3081 18.192 21.9641 17.704 20.9721 16.728C19.9801 15.752 19.4841 14.304 19.4841 12.384V5.088H23.2281V11.832C23.2281 13.912 24.1001 14.952 25.8441 14.952C26.7401 14.952 27.4601 14.664 28.0041 14.088C28.5481 13.496 28.8201 12.624 28.8201 11.472V5.088H32.5641ZM49.1847 0.191999V18H45.6087V16.512C44.6807 17.632 43.3367 18.192 41.5767 18.192C40.3607 18.192 39.2567 17.92 38.2647 17.376C37.2887 16.832 36.5207 16.056 35.9607 15.048C35.4007 14.04 35.1207 12.872 35.1207 11.544C35.1207 10.216 35.4007 9.048 35.9607 8.04C36.5207 7.032 37.2887 6.256 38.2647 5.712C39.2567 5.168 40.3607 4.896 41.5767 4.896C43.2247 4.896 44.5127 5.416 45.4407 6.456V0.191999H49.1847ZM42.2247 15.12C43.1687 15.12 43.9527 14.8 44.5767 14.16C45.2007 13.504 45.5127 12.632 45.5127 11.544C45.5127 10.456 45.2007 9.592 44.5767 8.952C43.9527 8.296 43.1687 7.968 42.2247 7.968C41.2647 7.968 40.4727 8.296 39.8487 8.952C39.2247 9.592 38.9127 10.456 38.9127 11.544C38.9127 12.632 39.2247 13.504 39.8487 14.16C40.4727 14.8 41.2647 15.12 42.2247 15.12ZM65.2979 11.592C65.2979 11.64 65.2739 11.976 65.2259 12.6H55.4579C55.6339 13.4 56.0499 14.032 56.7059 14.496C57.3619 14.96 58.1779 15.192 59.1539 15.192C59.8259 15.192 60.4179 15.096 60.9299 14.904C61.4579 14.696 61.9459 14.376 62.3939 13.944L64.3859 16.104C63.1699 17.496 61.3939 18.192 59.0579 18.192C57.6019 18.192 56.3139 17.912 55.1939 17.352C54.0739 16.776 53.2099 15.984 52.6019 14.976C51.9939 13.968 51.6899 12.824 51.6899 11.544C51.6899 10.28 51.9859 9.144 52.5779 8.136C53.1859 7.112 54.0099 6.32 55.0499 5.76C56.1059 5.184 57.2819 4.896 58.5779 4.896C59.8419 4.896 60.9859 5.168 62.0099 5.712C63.0339 6.256 63.8339 7.04 64.4099 8.064C65.0019 9.072 65.2979 10.248 65.2979 11.592ZM58.6019 7.728C57.7539 7.728 57.0419 7.968 56.4659 8.448C55.8899 8.928 55.5379 9.584 55.4099 10.416H61.7699C61.6419 9.6 61.2899 8.952 60.7139 8.472C60.1379 7.976 59.4339 7.728 58.6019 7.728ZM73.5745 18.288C72.2465 18.288 70.9585 18.112 69.7105 17.76C68.4785 17.392 67.4865 16.92 66.7345 16.344L68.0545 13.416C68.7745 13.944 69.6305 14.368 70.6225 14.688C71.6145 15.008 72.6065 15.168 73.5985 15.168C74.7025 15.168 75.5185 15.008 76.0465 14.688C76.5745 14.352 76.8385 13.912 76.8385 13.368C76.8385 12.968 76.6785 12.64 76.3585 12.384C76.0545 12.112 75.6545 11.896 75.1585 11.736C74.6785 11.576 74.0225 11.4 73.1905 11.208C71.9105 10.904 70.8625 10.6 70.0465 10.296C69.2305 9.992 68.5265 9.504 67.9345 8.832C67.3585 8.16 67.0705 7.264 67.0705 6.144C67.0705 5.168 67.3345 4.288 67.8625 3.504C68.3905 2.704 69.1825 2.072 70.2385 1.608C71.3105 1.144 72.6145 0.912 74.1505 0.912C75.2225 0.912 76.2705 1.04 77.2945 1.296C78.3185 1.552 79.2145 1.92 79.9825 2.4L78.7825 5.352C77.2305 4.472 75.6785 4.032 74.1265 4.032C73.0385 4.032 72.2305 4.208 71.7025 4.56C71.1905 4.912 70.9345 5.376 70.9345 5.952C70.9345 6.528 71.2305 6.96 71.8225 7.248C72.4305 7.52 73.3505 7.792 74.5825 8.064C75.8625 8.368 76.9105 8.672 77.7265 8.976C78.5425 9.28 79.2385 9.76 79.8145 10.416C80.4065 11.072 80.7025 11.96 80.7025 13.08C80.7025 14.04 80.4305 14.92 79.8865 15.72C79.3585 16.504 78.5585 17.128 77.4865 17.592C76.4145 18.056 75.1105 18.288 73.5745 18.288ZM90.9432 4.896C92.5432 4.896 93.8312 5.376 94.8072 6.336C95.7992 7.296 96.2952 8.72 96.2952 10.608V18H92.5512V11.184C92.5512 10.16 92.3272 9.4 91.8792 8.904C91.4312 8.392 90.7832 8.136 89.9352 8.136C88.9912 8.136 88.2392 8.432 87.6792 9.024C87.1192 9.6 86.8392 10.464 86.8392 11.616V18H83.0952V0.191999H86.8392V6.432C87.3352 5.936 87.9352 5.56 88.6392 5.304C89.3432 5.032 90.1112 4.896 90.9432 4.896ZM104.897 4.896C106.897 4.896 108.433 5.376 109.505 6.336C110.577 7.28 111.113 8.712 111.113 10.632V18H107.609V16.392C106.905 17.592 105.593 18.192 103.673 18.192C102.681 18.192 101.817 18.024 101.081 17.688C100.361 17.352 99.8089 16.888 99.4249 16.296C99.0409 15.704 98.8489 15.032 98.8489 14.28C98.8489 13.08 99.2969 12.136 100.193 11.448C101.105 10.76 102.505 10.416 104.393 10.416H107.369C107.369 9.6 107.121 8.976 106.625 8.544C106.129 8.096 105.385 7.872 104.393 7.872C103.705 7.872 103.025 7.984 102.353 8.208C101.697 8.416 101.137 8.704 100.673 9.072L99.3289 6.456C100.033 5.96 100.873 5.576 101.849 5.304C102.841 5.032 103.857 4.896 104.897 4.896ZM104.609 15.672C105.249 15.672 105.817 15.528 106.313 15.24C106.809 14.936 107.161 14.496 107.369 13.92V12.6H104.801C103.265 12.6 102.497 13.104 102.497 14.112C102.497 14.592 102.681 14.976 103.049 15.264C103.433 15.536 103.953 15.672 104.609 15.672ZM122.133 4.896C123.333 4.896 124.421 5.176 125.397 5.736C126.389 6.28 127.165 7.056 127.725 8.064C128.285 9.056 128.565 10.216 128.565 11.544C128.565 12.872 128.285 14.04 127.725 15.048C127.165 16.04 126.389 16.816 125.397 17.376C124.421 17.92 123.333 18.192 122.133 18.192C120.485 18.192 119.189 17.672 118.245 16.632V22.656H114.501V5.088H118.077V6.576C119.005 5.456 120.357 4.896 122.133 4.896ZM121.485 15.12C122.445 15.12 123.229 14.8 123.837 14.16C124.461 13.504 124.773 12.632 124.773 11.544C124.773 10.456 124.461 9.592 123.837 8.952C123.229 8.296 122.445 7.968 121.485 7.968C120.525 7.968 119.733 8.296 119.109 8.952C118.501 9.592 118.197 10.456 118.197 11.544C118.197 12.632 118.501 13.504 119.109 14.16C119.733 14.8 120.525 15.12 121.485 15.12ZM143.72 11.592C143.72 11.64 143.696 11.976 143.648 12.6H133.88C134.056 13.4 134.472 14.032 135.128 14.496C135.784 14.96 136.6 15.192 137.576 15.192C138.248 15.192 138.84 15.096 139.352 14.904C139.88 14.696 140.368 14.376 140.816 13.944L142.808 16.104C141.592 17.496 139.816 18.192 137.48 18.192C136.024 18.192 134.736 17.912 133.616 17.352C132.496 16.776 131.632 15.984 131.024 14.976C130.416 13.968 130.112 12.824 130.112 11.544C130.112 10.28 130.408 9.144 131 8.136C131.608 7.112 132.432 6.32 133.472 5.76C134.528 5.184 135.704 4.896 137 4.896C138.264 4.896 139.408 5.168 140.432 5.712C141.456 6.256 142.256 7.04 142.832 8.064C143.424 9.072 143.72 10.248 143.72 11.592ZM137.024 7.728C136.176 7.728 135.464 7.968 134.888 8.448C134.312 8.928 133.96 9.584 133.832 10.416H140.192C140.064 9.6 139.712 8.952 139.136 8.472C138.56 7.976 137.856 7.728 137.024 7.728Z" fill="#244D4D"/>
</svg>
